Coordinates
version=1
nRows=19
nColumns=36
inDegrees=yes

Units are S.I. units (second, meters, Newtons, ...)
If the header above contains a line with 'inDegrees', this indicates whether rotational values are in degrees (yes) or radians (no).

endheader
time	pelvis_tilt	pelvis_list	pelvis_rotation	pelvis_tx	pelvis_ty	pelvis_tz	hip_flexion_r	hip_adduction_r	hip_rotation_r	knee_angle_r	knee_angle_r_beta	ankle_angle_r	subtalar_angle_r	mtp_angle_r	hip_flexion_l	hip_adduction_l	hip_rotation_l	knee_angle_l	knee_angle_l_beta	ankle_angle_l	subtalar_angle_l	mtp_angle_l	lumbar_extension	lumbar_bending	lumbar_rotation	arm_flex_r	arm_add_r	arm_rot_r	elbow_flex_r	pro_sup_r	arm_flex_l	arm_add_l	arm_rot_l	elbow_flex_l	pro_sup_l
      5.03333330	     -9.49159802	     -1.62650398	     -0.44205234	      1.03000338	      0.58864782	     -0.05213750	     72.97887694	    -10.37316490	     -2.71109006	    105.16115436	      1.83540839	     40.08656432	    -12.57237490	     -7.49999987	     73.93264917	    -17.88527865	      4.11482249	    105.39973159	      1.83957235	     31.12282972	    -21.98075422	     -7.49999987	    -46.50046829	     -2.59594820	     -1.79194229	     60.05410844	    -12.63415603	      4.53059945	     93.09134320	     99.29187750	     56.88729569	    -18.23471802	      9.18359682	    101.19128333	     93.91504503
      5.05000000	     -8.62175395	     -1.46068316	     -0.83596371	      1.03827785	      0.60808941	     -0.05107766	     69.09204490	     -9.67862135	     -3.15512320	    101.09415428	      1.76442585	     38.75214349	    -12.75469817	     -7.49999987	     69.54134899	    -18.03842734	      2.79234099	    101.00689623	      1.76290291	     29.56690320	    -22.67153560	     -7.49999987	    -46.70801302	     -3.03795694	     -1.77438615	     56.61160944	    -14.23515001	      4.26390436	     87.45518092	     98.87426312	     54.25617409	    -19.69194484	      8.34254924	     94.64611668	     93.22654341
      5.06666670	     -7.86355181	     -1.17510014	     -1.44589065	      1.04342515	      0.62897500	     -0.05324237	     65.11309928	     -9.10095935	     -3.31580535	     96.74193574	      1.68846530	     37.82778753	    -12.71189294	     -7.49999987	     65.00743375	    -18.25549625	      0.90659557	     96.70359627	      1.68779615	     28.59462203	    -23.23295409	     -7.49999987	    -46.68813451	     -3.45093301	     -1.56636482	     53.05289255	    -15.94231395	      4.25034050	     81.36660536	     98.26331749	     50.97821974	    -20.80904115	      7.27535620	     88.07180388	     92.32867564
      5.08333330	     -7.13139506	     -0.79352907	     -1.47820363	      1.03301088	      0.64993409	     -0.05502623	     61.97075255	     -9.20316365	     -3.41396015	     92.57636764	      1.61576242	     36.38535327	    -12.97377154	     -7.49999987	     61.16103264	    -17.42320382	     -0.73051740	     92.17331319	      1.60872780	     27.42513431	    -24.05337343	     -7.49999987	    -46.90022345	     -3.46384539	     -1.63785142	     51.52707331	    -17.61856732	      5.00833320	     73.73292125	     97.50922320	     50.00319496	    -21.26312315	      7.41845563	     80.17678736	     91.28652449
      5.10000000	     -6.82187084	     -0.63417428	     -1.61704722	      1.03205548	      0.67359387	     -0.05698626	     58.64319275	     -9.34869941	     -3.92916091	     87.57551208	      1.52848103	     35.42995918	    -12.15702390	     -7.49999987	     57.86776678	    -16.69017539	     -2.08364710	     87.54595205	      1.52796511	     25.17144202	    -25.38121161	     -7.49999987	    -46.54953822	     -3.31180460	     -0.95555265	     49.53735577	    -19.94110801	      7.49532897	     65.94427944	     89.47199736	     49.00669035	    -21.73188684	     10.19783192	     73.61550833	     80.98953272
      5.11666670	     -6.31151990	     -0.53546266	     -1.53849772	      1.03426319	      0.69227880	     -0.05693682	     55.10987565	     -9.47704175	     -4.52404915	     82.80387505	      1.44520025	     34.55772003	    -11.51297653	     -7.49999987	     54.59243058	    -15.99607923	     -3.15926398	     83.08646632	      1.45013240	     23.76413761	    -25.75492835	     -7.49999987	    -46.17559394	     -2.85645890	     -0.36702396	     46.81529693	    -21.38358577	      8.60838542	     59.03876523	     89.35412776	     46.64353906	    -21.80499599	     10.66835669	     69.45791585	     80.53358855
      5.13333330	     -5.37549350	     -0.44072699	     -0.98592838	      1.04500086	      0.71786061	     -0.05880581	     50.02518988	     -9.92303811	     -5.46331086	     77.16046293	      1.34670413	     33.51615202	    -10.99256978	     -7.49999987	     50.23442750	    -15.06182523	     -4.15901951	     77.99339988	      1.36124162	     22.31317858	    -25.67751191	     -7.49999987	    -46.17595606	     -2.23518891	      0.10793344	     42.19014049	    -22.44473880	      8.36372675	     53.31037746	     89.15713191	     43.17780301	    -21.43352894	     10.35542046	     67.12937449	     80.26443796
      5.15000000	     -4.47802677	     -0.17235466	     -0.35649127	      1.05182520	      0.73993437	     -0.05848667	     44.98089956	    -10.45030774	     -6.58792410	     71.52302355	      1.24831225	     32.07556087	    -10.62383835	     -7.49999987	     45.48678717	    -14.10958804	     -5.29537878	     72.39620224	      1.26355210	     21.43318045	    -24.58845883	     -7.49999987	    -45.42386605	     -1.75868941	     -0.29074239	     37.79591318	    -22.06801928	      9.13780306	     45.57047163	     88.47142147	     39.50994997	    -21.62036922	     10.36577003	     62.92354464	     79.63849491
      5.16666670	     -3.66722580	      0.01646650	      0.25531730	      1.05409673	      0.75862324	     -0.05874372	     40.05581249	    -10.68713958	     -7.80423087	     65.85034999	      1.14930542	     30.76190221	     -9.99569865	     -7.49999987	     40.82577375	    -13.27511515	     -6.39331777	     66.71928844	      1.16447126	     20.26000123	    -23.66913616	     -7.49999987	    -44.57776827	     -1.31566270	     -0.39796873	     33.24115965	    -22.07719432	      9.39183269	     40.01162705	     87.73312146	     35.71352520	    -21.53350746	     10.07308828	     59.95420434	     79.25625272
      5.18333330	     -3.21520840	      0.17671618	      0.69332520	      1.05476248	      0.77772352	     -0.05706241	     36.04595418	    -10.68276177	     -9.17745361	     60.40864077	      1.05432968	     28.99637964	    -10.01980833	     -7.49999987	     36.88331684	    -12.50811044	     -7.31989006	     61.17357821	      1.06768035	     18.69819591	    -22.79812915	     -7.49999987	    -43.47623013	     -1.03294174	     -0.75625802	     29.00394368	    -21.70571817	      9.57571802	     35.14014632	     87.06519267	     32.44300193	    -21.71290175	      9.94639028	     56.47252461	     78.96225512
      5.20000000	     -2.95192586	      0.30704608	      0.96200386	      1.05649790	      0.80394927	     -0.05552894	     32.02461388	    -10.22652976	    -10.29112116	     54.07864821	      0.94385047	     26.44321788	     -9.32407562	     -7.49999987	     32.82549594	    -11.72161124	     -8.03589980	     54.85886892	      0.95746789	     16.02551012	    -22.14961385	     -7.49999987	    -42.36173991	     -0.82871690	     -1.39145115	     24.99811524	    -20.58158818	      9.67218848	     30.40156672	     86.29426194	     29.45159332	    -21.87069150	      9.99766197	     52.39013080	     78.64053495
      5.21666670	     -2.84103128	      0.55414975	      1.32152951	      1.06318100	      0.81916307	     -0.05407015	     28.03741735	     -9.74905329	    -11.32492787	     47.75206949	      0.83343084	     24.18476914	     -8.42846404	     -7.49999987	     29.09535452	    -10.80105566	     -8.54660619	     48.77158969	      0.85122482	     13.91389458	    -21.20753725	     -7.49999987	    -40.44285457	     -0.85707307	     -2.30522097	     20.83582437	    -19.44010714	      9.70517657	     25.89705764	     85.33699008	     25.90057688	    -21.81325263	     10.08510099	     47.80165246	     78.24608540
      5.23333330	     -3.20021935	      0.82467170	      1.51072724	      1.07179265	      0.82605661	     -0.05353576	     25.05669856	     -9.28710958	    -11.86213472	     42.48747946	      0.74154641	     22.93323555	     -7.63541271	     -7.49999987	     26.23646786	     -9.93497970	     -8.86923689	     43.66272048	      0.76205823	     12.48053248	    -20.31726918	     -7.49999987	    -37.21085556	     -1.08159985	     -2.85013784	     16.66854630	    -18.83876825	     16.28569808	     20.17573348	     68.51849190	     22.22432446	    -21.63059687	     11.77111461	     42.98402693	     72.72849147
      5.25000000	     -3.69417527	      1.14727435	      1.40845358	      1.07854537	      0.83669878	     -0.05257280	     22.49092688	     -8.83443418	    -12.28795481	     37.40577019	      0.65285385	     20.80895411	     -7.16479772	     -7.49999987	     23.20507447	     -8.99739006	     -9.39458416	     38.28609969	      0.66821850	     11.52856349	    -18.58631036	     -7.49999987	    -33.91613927	     -1.43558428	     -3.32498621	     11.83464587	    -18.06663800	     16.16973645	     16.98386818	     68.00867862	     17.55340610	    -21.24672314	     11.06957780	     39.64911926	     72.57767047
      5.26666670	     -4.08237867	      1.39713115	      1.30551713	      1.08839936	      0.84673365	     -0.05054520	     19.87378604	     -8.29566888	    -12.56434368	     32.66256611	      0.57006932	     18.89428202	     -6.69337523	     -7.49999987	     19.84905297	     -8.09803000	     -9.72299228	     32.70731066	      0.57085026	     10.86895771	    -16.73779591	     -7.49999987	    -30.51679671	     -1.74062985	     -3.76851668	      7.01865802	    -17.55240144	     16.02832835	     14.62062486	     67.50989582	     12.65098937	    -20.89212320	     10.52332927	     36.59408857	     72.37473670
      5.28333330	     -4.74230021	      1.50495973	      1.00094169	      1.09885563	      0.85221533	     -0.04954497	     17.65161320	     -7.62342578	    -12.91282695	     27.98276700	      0.48839142	     17.07942536	     -6.13998837	     -7.49999987	     16.74734255	     -7.36845907	     -9.99805433	     27.43321020	      0.47879984	     10.35671031	    -14.58103106	     -7.49999987	    -26.68636222	     -1.97470742	     -3.68156113	      2.11020282	    -17.16230456	     14.84098427	     12.15809562	     65.46412092	      7.39039519	    -20.08891250	      8.63195688	     33.84166071	     70.38492712
      5.30000000	     -5.16850520	      1.47280382	      0.81923909	      1.10901185	      0.85370657	     -0.04973276	     15.27354932	     -6.83820157	    -13.09966403	     23.76101232	      0.41470790	     16.22504311	     -5.29228804	     -7.49999987	     13.66578492	     -6.55605440	     -9.66895174	     22.65289353	      0.39536758	     10.40987725	    -12.00778973	     -7.49999987	    -23.19621104	     -1.96371588	     -3.66755508	     -2.52473253	    -17.21485594	     16.75428971	     10.38978497	     60.78363746	      1.88873319	    -19.20012770	      5.28314093	     32.27018159	     71.51758480
      5.31666670	     -5.70612663	      1.27204237	      0.32327641	      1.11109355	      0.85923075	     -0.05132987	     13.31126471	     -5.93870771	    -13.22794754	     19.65974191	      0.34312723	     15.32124794	     -4.82222080	     -7.49999987	     11.11582363	     -5.80662037	     -8.78979964	     18.27187352	      0.31890435	     10.54317422	     -9.14096259	     -7.49999987	    -20.09706033	     -1.74513920	     -2.93252307	     -6.64441215	    -17.80981142	     16.40405736	      9.16539303	     60.26831439	     -2.30802026	    -18.33783702	      3.77808185	     30.45248079	     70.32692694
      5.33333330	     -5.91564533	      1.01391616	     -0.36738683	      1.12203314	      0.85821120	     -0.04877694	     10.95747931	     -4.90666850	    -13.10635809	     15.76958073	      0.27523111	     14.47997019	     -4.17815394	     -7.49999987	      8.36436524	     -5.20604089	     -7.70469363	     14.25166729	      0.24873852	     10.57064439	     -6.30786001	     -7.49999987	    -17.47228695	     -1.46576146	     -2.37880578	    -10.84188477	    -18.25381139	     14.65427311	      8.51656182	     57.97928433	     -7.11257857	    -17.59678154	      0.38892750	     29.61960168	     69.46717287
